# xmcd CD database file
#
# Track frame offsets:
#	150
#	17206
#	32004
#	53833
#	72733
#	85898
#	101383
#	114109
#	128443
#	141394
#	157896
#	174028
#
# Disc length: 2425 seconds
#
# Revision: 0
# Processed by: cddbd v1.5.2PL0 Copyright (c) Steve Scherf et al.
# Submitted via: CDex 1.70beta2
#
DISCID=9009770c
DTITLE=Ira´s World - Acoustic Moves
DYEAR=2005
DGENRE=Jazz
TTITLE0=Can't get you out of my mind
TTITLE1=Creeping in
TTITLE2=Every little thing she does is magic
TTITLE3=Overload
TTITLE4=These boots are made for walking
TTITLE5=Jump
TTITLE6=Get this party started
TTITLE7=Don't know why
TTITLE8=I feel good
TTITLE9=Strong enough
TTITLE10=I will survive
TTITLE11=Freak out
EXTD=YEAR: 2005
EXTT0=
EXTT1=
EXTT2=
EXTT3=
EXTT4=
EXTT5=
EXTT6=
EXTT7=
EXTT8=
EXTT9=
EXTT10=
EXTT11=
PLAYORDER=
